# xmcd CD database file
#
# Track frame offsets:
#	150
#	40285
#	79695
#	113690
#	158380
#	189083
#	235743
#	268050
#
# Disc length: 4132 seconds
#
# Revision: 0
# Processed by: cddbd v1.5.2PL0 Copyright (c) Steve Scherf et al.
# Submitted via: CDex 1.70beta2
#
DISCID=53102208
DTITLE=Enja Band  - Live at Sweet Basil
DYEAR=1994
DGENRE=Jazz
TTITLE0=the unnameable
TTITLE1=purse
TTITLE2=lorietta
TTITLE3=stalking
TTITLE4=yvette
TTITLE5=clockwork
TTITLE6=the duke and mr. strayhorn
TTITLE7=from an x
EXTD=YEAR: 1994
EXTT0=
EXTT1=
EXTT2=
EXTT3=
EXTT4=
EXTT5=
EXTT6=
EXTT7=
PLAYORDER=
